<?xml version="1.0" standalone="no"?><!DOCTYPE svg PUBLIC "-//W3C//DTD SVG 1.1//EN" "http://www.w3.org/Graphics/SVG/1.1/DTD/svg11.dtd"><svg t="1619926764462" class="icon" viewBox="0 0 1024 1024" version="1.1" xmlns="http://www.w3.org/2000/svg" p-id="1861" xmlns:xlink="http://www.w3.org/1999/xlink" width="200" height="200"><defs><style type="text/css"></style></defs><path d="M439.85502 5.564082c104.202449-14.863673 212.929306 2.842122 306.390204 51.429877 100.540082 51.550041 183.029551 137.404082 230.342531 239.97649 51.142531 109.312 61.126531 236.961959 28.557061 353.123265-28.557061 102.629878-90.148571 195.918367-173.682938 262.091755-79.004735 63.273796-177.225143 102.572408-278.292898 109.944164-126.897633 11.206531-257.217306-28.499592-357.062531-107.504327-71.925551-56.079673-127.947755-132.179592-160.971755-217.108898-48.013061-122.425469-45.923265-263.544163 5.689469-384.464979C108.157388 150.22498 265.069714 28.724245 439.849796 5.564082zM286.939429 358.358204C229.250612 386.868245 190.735673 450.486857 194.074122 515.098122c0.647837 62.41698 39.904653 121.939592 96.156735 148.203102 36.665469 17.825959 79.265959 19.826939 118.721306 11.83347 45.886694-9.633959 84.500898-39.293388 116.58449-72.254694 50.07151-51.226122 80.765388-116.992 121.067102-175.412245a29169.057959 29169.057959 0 0 1 63.320816 115.696327c-22.961633-14.785306-43.687184-32.809796-67.406367-46.487511-15.642122 11.180408-31.085714 22.669061-46.879347 33.650939 57.991837 45.891918 118.324245 88.78498 177.51249 133.125225 12.110367 8.186776 26.00751 21.770449 41.701877 13.729959 16.441469-6.687347 21.127837-28.410776 11.311021-42.543021-48.927347-93.126531-101.339429-184.351347-152.502857-276.281469-5.281959-12.235755-18.337959-21.321143-31.989551-17.376653-12.601469 1.995755-18.928327 14.529306-25.359674 24.116245-29.988571 49.434122-57.741061 100.320653-91.021061 147.706775-31.63951 45.139592-72.045714 90.226939-127.597714 103.810613-54.204082 14.23151-117.728653-13.583673-138.44898-67.108572-16.645224-43.196082-2.742857-96.078367 34.121143-124.337632 33.58302-27.167347 81.010939-29.110857 120.868571-16.525062 39.862857 12.878367 71.497143 41.639184 103.48147 67.458613 16.342204-11.284898 33.630041-21.671184 47.631673-35.954939-42.004898-37.302857-86.88849-74.250449-141.197061-91.527837-44.988082-11.833469-95.111837-12.277551-137.210775 9.738449z" fill="#515151" p-id="1862"></path></svg>