<?xml version="1.0" standalone="no"?><!DOCTYPE svg PUBLIC "-//W3C//DTD SVG 1.1//EN" "http://www.w3.org/Graphics/SVG/1.1/DTD/svg11.dtd"><svg t="1620021890212" class="icon" viewBox="0 0 1024 1024" version="1.1" xmlns="http://www.w3.org/2000/svg" p-id="2771" xmlns:xlink="http://www.w3.org/1999/xlink" width="200" height="200"><defs><style type="text/css"></style></defs><path d="M1020.8 529.6c0 110.4-32 209.6-97.6 300.8-65.6 88-147.2 150.4-251.2 185.6-12.8 3.2-22.4 0-25.6-3.2-6.4-6.4-9.6-12.8-9.6-19.2v-140.8c0-43.2-12.8-75.2-35.2-94.4 25.6-3.2 46.4-6.4 68.8-12.8 19.2-6.4 40-12.8 62.4-25.6s40-28.8 52.8-43.2c12.8-16 25.6-40 35.2-68.8s12.8-62.4 12.8-100.8c0-52.8-19.2-100.8-52.8-137.6 16-40 16-84.8-6.4-134.4-12.8-3.2-32 0-52.8 6.4-22.4 9.6-43.2 19.2-59.2 28.8l-25.6 16c-40-12.8-84.8-19.2-128-19.2s-88 6.4-128 19.2c-6.4-6.4-16-9.6-28.8-19.2-12.8-6.4-32-16-56-25.6-25.6-9.6-43.2-12.8-56-9.6-19.2 49.6-22.4 94.4-3.2 134.4-35.2 38.4-52.8 84.8-52.8 137.6 0 38.4 3.2 72 12.8 100.8 9.6 28.8 22.4 52.8 35.2 68.8 16 19.2 32 32 52.8 43.2s40 22.4 62.4 25.6c22.4 3.2 43.2 9.6 68.8 12.8-19.2 16-28.8 38.4-32 68.8-9.6 3.2-19.2 6.4-32 9.6-9.6 3.2-22.4 3.2-38.4 3.2s-28.8-6.4-43.2-16c-16-9.6-25.6-22.4-38.4-40-9.6-16-19.2-25.6-32-35.2-12.8-9.6-25.6-16-32-16l-8-1.6c-9.6 0-16 0-19.2 3.2-3.2 3.2-3.2 3.2-3.2 6.4s3.2 6.4 6.4 9.6l9.6 9.6 3.2 3.2c9.6 3.2 19.2 12.8 28.8 25.6 9.6 12.8 16 25.6 22.4 35.2l6.4 16c6.4 16 16 32 28.8 40 12.8 9.6 28.8 16 43.2 19.2 16 3.2 32 3.2 46.4 3.2s28.8 0 38.4-3.2l16-3.2v94.4c0 9.6-3.2 16-9.6 19.2-6.4 3.2-16 6.4-25.6 3.2-104-35.2-185.6-94.4-251.2-185.6C35.2 736 3.2 635.2 3.2 523.2c0-94.4 22.4-179.2 68.8-257.6S177.6 123.2 256 78.4 419.2 9.6 513.6 9.6 692.8 32 771.2 78.4s140.8 107.2 185.6 185.6c40 88 64 172.8 64 265.6z" fill="#515151" p-id="2772"></path></svg>