<?xml version="1.0" standalone="no"?><!DOCTYPE svg PUBLIC "-//W3C//DTD SVG 1.1//EN" "http://www.w3.org/Graphics/SVG/1.1/DTD/svg11.dtd"><svg t="1619927160464" class="icon" viewBox="0 0 1024 1024" version="1.1" xmlns="http://www.w3.org/2000/svg" p-id="8915" xmlns:xlink="http://www.w3.org/1999/xlink" width="200" height="200"><defs><style type="text/css"></style></defs><path d="M512.1 0C229.2 0 0 229.2 0 512c0 282.8 229.2 512 512.1 512 282.7 0 511.9-229.2 511.9-512C1024 229.2 794.7 0 512.1 0zM297.4 333.2l429.3 0c1.3 0 2.3 0.6 3.6 0.7L508.9 555.2 288.6 334.9C291.5 334.2 294.3 333.2 297.4 333.2zM762.4 655.1c0 19.8-16 35.8-35.8 35.8L297.4 690.9c-19.7 0-35.8-16-35.8-35.8L261.6 368.9c0-3.1 1.1-5.9 1.7-8.8l233 233c3.4 3.4 7.9 5.2 12.7 5.2 4.7 0 9.3-1.9 12.7-5.2l238-238.1c1.7 4.3 2.8 8.9 2.8 13.9L762.5 655.1 762.4 655.1z" p-id="8916" fill="#515151"></path></svg>