<?xml version="1.0" standalone="no"?><!DOCTYPE svg PUBLIC "-//W3C//DTD SVG 1.1//EN" "http://www.w3.org/Graphics/SVG/1.1/DTD/svg11.dtd"><svg t="1619927269567" class="icon" viewBox="0 0 1024 1024" version="1.1" xmlns="http://www.w3.org/2000/svg" p-id="12494" xmlns:xlink="http://www.w3.org/1999/xlink" width="200" height="200"><defs><style type="text/css"></style></defs><path d="M512 0C229.376 0 0 229.376 0 512s229.376 512 512 512 512-229.376 512-512S794.624 0 512 0zM249.856 263.168c0-7.168 6.144-13.312 13.312-13.312h161.792v33.792H296.96c-7.168 0-13.312 6.144-13.312 13.312v128h-33.792V263.168z m175.104 510.976H263.168c-7.168 0-13.312-6.144-13.312-13.312V599.04h33.792V727.04c0 7.168 5.12 12.288 12.288 13.312h128v33.792z m108.544-133.12l-33.792 1.024-1.024-58.368h-77.824v-26.624h76.8l-1.024-47.104h-75.776v-26.624h67.584l-71.68-102.4H450.56l61.44 89.088 62.464-89.088H608.256l-70.656 102.4H604.16v26.624h-72.704l1.024 47.104h71.68V583.68h-71.68l1.024 57.344z m240.64 119.808c0 7.168-6.144 13.312-13.312 13.312H599.04v-33.792H727.04c7.168 0 13.312-6.144 13.312-13.312V599.04h33.792v161.792z m0-335.872h-33.792V296.96c0-7.168-5.12-12.288-12.288-13.312H599.04v-33.792h161.792c7.168 0 13.312 6.144 13.312 13.312v161.792z" p-id="12495" fill="#515151"></path></svg>